<svg xmlns="http://www.w3.org/2000/svg" width="16" height="10" viewBox="0 0 16 10">
  <g fill="#FFFFFF" fill-rule="evenodd" transform="matrix(-1 0 0 1 16 0)">
    <path d="M4.9993156,6.09117013 C4.44740883,6.09117013 4,5.64997163 4,5.09039757 L4,4.91173032 C4,4.35901889 4.44541575,3.91095776 4.9993156,3.91095776 L12.0275679,3.91095776 C12.1695194,3.91095776 12.2099041,3.83233493 12.1147266,3.73214548 L10.3894455,1.91601342 C10.0062774,1.5126682 10.0100042,0.854793409 10.3815069,0.463727836 L10.5631711,0.27249746 C10.9419548,-0.126232497 11.5574128,-0.12483434 11.936601,0.274321433 L15.7393095,4.27727552 C16.1190502,4.67701283 16.1184978,5.3256966 15.7393095,5.72485237 L11.936601,9.72780646 C11.5568603,10.1275438 10.9346738,10.120696 10.5631711,9.72963043 L10.3815069,9.53840005 C10.0027232,9.1396701 10.0028098,8.49310993 10.3894455,8.08611447 L12.1147266,6.26998241 C12.2085417,6.17122712 12.1674803,6.09117013 12.0275679,6.09117013 L4.9993156,6.09117013 Z" opacity=".8"/>
    <rect width="3" height="2" y="4" opacity=".6" rx="1"/>
  </g>
</svg>
