<svg xmlns="http://www.w3.org/2000/svg" width="16" height="16" viewBox="0 0 16 16">
  <path fill="#2B2B2A" fill-opacity=".5" fill-rule="evenodd" d="M15.116,0 L0.882,0 C0.394,0 -0.001,0.395 -0.001,0.883 L-0.001,15.117 C-0.001,15.605 0.394,16 0.882,16 L8.545,16 L8.545,9.804 L6.459,9.804 L6.459,7.39 L8.545,7.39 L8.545,5.607 C8.545,3.541 9.807,2.417 11.651,2.417 C12.534,2.417 13.293,2.481 13.514,2.511 L13.514,4.671 L12.234,4.671 C11.234,4.671 11.039,5.147 11.039,5.847 L11.039,7.387 L13.429,7.387 L13.119,9.803 L11.039,9.803 L11.039,16 L15.116,16 C15.604,16 15.999,15.605 15.999,15.117 L15.999,0.883 C15.999,0.395 15.604,0 15.116,0"/>
</svg>
