<svg xmlns="http://www.w3.org/2000/svg" width="16" height="16" viewBox="0 0 16 16">
  <path fill="#2B2B2A" fill-rule="evenodd" d="M7.999,0 C5.826,0 5.554,0.01 4.701,0.048 C3.849,0.088 3.269,0.222 2.759,0.42 C2.233,0.624 1.786,0.898 1.342,1.343 C0.897,1.787 0.622,2.233 0.419,2.76 C0.221,3.27 0.086,3.85 0.047,4.702 C0.007,5.555 -0.001,5.827 -0.001,8 C-0.001,10.173 0.009,10.445 0.047,11.298 C0.087,12.15 0.221,12.731 0.419,13.24 C0.623,13.766 0.897,14.213 1.342,14.657 C1.786,15.102 2.232,15.377 2.759,15.58 C3.269,15.778 3.849,15.913 4.701,15.952 C5.554,15.992 5.826,16 7.999,16 C10.172,16 10.444,15.99 11.297,15.952 C12.149,15.912 12.73,15.778 13.239,15.58 C13.765,15.376 14.212,15.102 14.656,14.657 C15.101,14.213 15.376,13.767 15.579,13.24 C15.777,12.73 15.912,12.15 15.951,11.298 C15.991,10.445 15.999,10.173 15.999,8 C15.999,5.827 15.989,5.555 15.951,4.702 C15.911,3.85 15.777,3.269 15.579,2.76 C15.375,2.234 15.101,1.787 14.656,1.343 C14.212,0.898 13.766,0.623 13.239,0.42 C12.729,0.222 12.149,0.087 11.297,0.048 C10.444,0.008 10.172,0 7.999,0 L7.999,0 Z M7.999,1.44 C10.135,1.44 10.389,1.45 11.232,1.488 C12.012,1.524 12.435,1.654 12.717,1.764 C13.091,1.909 13.357,2.082 13.637,2.362 C13.917,2.642 14.09,2.908 14.235,3.282 C14.345,3.564 14.475,3.987 14.511,4.767 C14.549,5.611 14.558,5.864 14.558,8 C14.558,10.136 14.548,10.39 14.51,11.233 C14.474,12.013 14.344,12.436 14.234,12.718 C14.089,13.092 13.916,13.358 13.636,13.638 C13.356,13.918 13.09,14.091 12.716,14.236 C12.434,14.346 12.011,14.476 11.231,14.512 C10.387,14.55 10.134,14.559 7.998,14.559 C5.862,14.559 5.608,14.549 4.765,14.511 C3.985,14.475 3.562,14.345 3.28,14.235 C2.906,14.09 2.64,13.917 2.36,13.637 C2.08,13.357 1.907,13.091 1.762,12.717 C1.652,12.435 1.522,12.012 1.486,11.232 C1.449,10.39 1.439,10.136 1.439,8 C1.439,5.864 1.449,5.61 1.487,4.767 C1.523,3.987 1.653,3.564 1.763,3.282 C1.908,2.908 2.081,2.642 2.361,2.362 C2.641,2.082 2.907,1.909 3.281,1.764 C3.563,1.654 3.986,1.524 4.766,1.488 C5.609,1.45 5.863,1.44 7.999,1.44 L7.999,1.44 Z M7.999,3.892 C5.729,3.892 3.891,5.732 3.891,8 C3.891,10.27 5.731,12.108 7.999,12.108 C10.269,12.108 12.107,10.268 12.107,8 C12.107,5.73 10.267,3.892 7.999,3.892 L7.999,3.892 Z M7.999,10.667 C6.526,10.667 5.332,9.473 5.332,8 C5.332,6.527 6.526,5.333 7.999,5.333 C9.472,5.333 10.666,6.527 10.666,8 C10.666,9.473 9.472,10.667 7.999,10.667 L7.999,10.667 Z M13.229,3.73 C13.229,4.26 12.799,4.69 12.269,4.69 C11.739,4.69 11.309,4.26 11.309,3.73 C11.309,3.2 11.739,2.77 12.269,2.77 C12.799,2.77 13.229,3.2 13.229,3.73 L13.229,3.73 Z" opacity=".5"/>
</svg>
