<svg xmlns="http://www.w3.org/2000/svg" width="16" height="16" viewBox="0 0 16 16">
  <path fill="#2B2B2A" fill-opacity=".5" fill-rule="evenodd" d="M13.631,13.635 L11.261,13.635 L11.261,9.922 C11.261,9.036 11.243,7.897 10.027,7.897 C8.792,7.897 8.603,8.861 8.603,9.857 L8.603,13.635 L6.233,13.635 L6.233,6 L8.509,6 L8.509,7.04 L8.539,7.04 C8.857,6.44 9.631,5.807 10.786,5.807 C13.186,5.807 13.631,7.387 13.631,9.444 L13.631,13.632 L13.631,13.635 Z M3.557,4.955 C2.795,4.955 2.181,4.338 2.181,3.578 C2.181,2.82 2.795,2.203 3.557,2.203 C4.317,2.203 4.933,2.82 4.933,3.578 C4.933,4.338 4.316,4.955 3.557,4.955 L3.557,4.955 Z M4.745,13.635 L2.369,13.635 L2.369,6 L4.745,6 L4.745,13.635 L4.745,13.635 Z M14.815,0 L1.179,0 C0.527,0 -0.001,0.516 -0.001,1.153 L-0.001,14.847 C-0.001,15.484 0.527,16 1.179,16 L14.814,16 C15.466,16 15.999,15.484 15.999,14.847 L15.999,1.153 C15.999,0.516 15.466,0 14.814,0 L14.815,0 Z"/>
</svg>
