<svg xmlns="http://www.w3.org/2000/svg" width="204" height="36" viewBox="0 0 204 36">
  <g fill="none" fill-rule="evenodd">
    <path fill="#1A1918" d="M4.87549749 25.1006197C4.48902513 23.9014648 3.55564824 23.7295775 3.06307538 23.7295775 2.78321608 23.7295775 2.47670352 23.795493 2.23631156 23.927831 1.75655276 24.1909859 1.47669347 24.732 1.3700804 25.2329577 1.30344724 25.5620282 1.29063317 25.8784225 1.27679397 26.208507 1.2501407 26.9989859 1.29063317 27.9091268 1.96977889 28.4628169 2.39623116 28.8187606 2.86266332 28.8319437 3.07588945 28.8319437 4.5418191 28.8319437 5.04874372 27.4208451 5.04874372 26.208507 5.04874372 26.0107606 5.03541709 25.5889014 4.87549749 25.1006197zM5.72840201 27.3949859C5.60794975 27.8563944 5.04874372 29.5833803 3.19582915 29.5833803 2.19633166 29.5833803 1.66326633 29.0428732 1.4500402 28.7132958 1.38340704 28.6210141 1.35675377 28.5682817 1.27679397 28.3837183L1.27679397 32.7736901.503849246 32.7736901.503849246 23.1500282 1.27679397 23.1500282 1.27679397 24.1783099C1.3700804 23.9673803 1.43671357 23.8619155 1.51667337 23.7691268 1.74322613 23.4664225 2.26347739 23.0181972 3.19582915 23.0181972 3.876 23.0181972 4.27579899 23.2022535 4.51567839 23.3472676 5.48801005 23.9541972 5.86115578 25.2593239 5.86115578 26.3139718 5.86115578 26.5249014 5.84834171 26.8935211 5.72840201 27.3949859zM12.9381106 29.4383662L12.9381106 26.0107606C12.9381106 25.8130141 12.9247839 25.6152676 12.9247839 25.404338 12.9109447 24.7842254 12.8314975 24.1783099 12.1918191 23.8745915 11.9514271 23.7691268 11.7120603 23.7295775 11.4455276 23.7295775 10.4726834 23.7295775 10.032392 24.2705915 9.8458191 24.6128451 9.59261307 25.1143099 9.57928643 25.6279437 9.57928643 26.7226479L9.57928643 29.4383662 8.77968844 29.4383662 8.77968844 20.1310986 9.57928643 20.1310986 9.57928643 24.1514366C9.59261307 24.1123944 9.6858995 23.940507 9.79251256 23.8086761 10.0190653 23.5059718 10.5654573 23.0181972 11.5521407 23.0181972 11.8314874 23.0181972 12.7510251 23.0704225 13.2974171 23.795493 13.6572362 24.2705915 13.7105427 24.7842254 13.7105427 25.8921127L13.7105427 29.4383662 12.9381106 29.4383662zM22.2401005 27.5263099C21.8397889 28.7923944 20.840804 29.5970704 19.4943015 29.5970704 19.0545226 29.5970704 18.0416985 29.5174648 17.295407 28.5419155 17.0155477 28.1596056 16.642402 27.4872676 16.642402 26.3661972 16.642402 26.0898592 16.6557286 25.4702535 16.9355879 24.7715493 17.5619397 23.1758873 18.9212563 22.9913239 19.5481206 22.9913239 20.2805729 22.9913239 20.8802714 23.2022535 21.4133367 23.6905352 22.1201608 24.3623662 22.4000201 25.3252394 22.4128342 26.2607324 22.4128342 26.471662 22.4128342 26.9731268 22.2401005 27.5263099zM19.5342814 23.6509859C19.3348945 23.6509859 18.8412965 23.6773521 18.3887035 24.0064225 17.8951055 24.3760563 17.4819799 25.0610704 17.4819799 26.3661972 17.4819799 26.604 17.4553266 27.8695775 18.3215578 28.5419155 18.5214573 28.7001127 18.894603 28.9110423 19.5081407 28.9110423 20.4404925 28.9110423 21.5599296 28.3309859 21.5737688 26.340338 21.6004221 24.2964507 20.5471055 23.6509859 19.5342814 23.6509859zM27.0105226 29.5570141C26.9438894 29.5570141 26.8639296 29.5570141 26.7972965 29.543831 26.6240503 29.5306479 26.1442915 29.4910986 25.9577186 28.9901408 25.8511055 28.7132958 25.8644322 28.0409577 25.8644322 27.7377465L25.8644322 23.8086761 24.5317688 23.8086761 24.5317688 23.1500282 25.8644322 23.1500282 25.8644322 20.4733521 26.6240503 20.4733521 26.6240503 23.1500282 28.0233467 23.1500282 28.0233467 23.8086761 26.6240503 23.8086761 26.6240503 27.276338 26.6240503 27.9486761C26.6107236 28.3178028 26.6107236 28.871493 27.1437889 28.871493 27.4636281 28.871493 27.7834673 28.6468732 28.0233467 28.476L28.0233467 29.2669859C27.8501005 29.3856338 27.5302613 29.5570141 27.0105226 29.5570141zM35.7394673 27.5263099C35.3396683 28.7923944 34.3401709 29.5970704 32.9941809 29.5970704 32.554402 29.5970704 31.5415779 29.5174648 30.7952864 28.5419155 30.5154271 28.1596056 30.1422814 27.4872676 30.1422814 26.3661972 30.1422814 26.0898592 30.1550955 25.4702535 30.4354673 24.7715493 31.0618191 23.1758873 32.4211357 22.9913239 33.0474874 22.9913239 33.7804523 22.9913239 34.3801508 23.2022535 34.9132161 23.6905352 35.6195276 24.3623662 35.8993869 25.3252394 35.9127136 26.2607324 35.9127136 26.471662 35.9127136 26.9731268 35.7394673 27.5263099zM33.0341608 23.6509859C32.8342613 23.6509859 32.3411759 23.6773521 31.8880704 24.0064225 31.3949849 24.3760563 30.9818593 25.0610704 30.9818593 26.3661972 30.9818593 26.604 30.955206 27.8695775 31.8214372 28.5419155 32.0213367 28.7001127 32.3944824 28.9110423 33.0075075 28.9110423 33.9403719 28.9110423 35.059809 28.3309859 35.0731357 26.340338 35.0997889 24.2964507 34.0469849 23.6509859 33.0341608 23.6509859zM44.0153065 30.2820845C44.0019799 30.5061972 43.9753266 31.3630986 43.3889548 31.9431549 43.0424623 32.2996056 42.3494774 32.6550423 41.2167136 32.6550423 40.8968744 32.6550423 39.3909648 32.6550423 38.7507739 31.4558873 38.5247337 31.0335211 38.4842412 30.5721127 38.4714271 30.4139155L39.2976784 30.2689014C39.4042915 30.9676056 39.604191 31.9832113 41.3233266 31.9832113 41.5498794 31.9832113 42.6160101 32.0090704 43.0424623 31.1258028 43.2556884 30.6775775 43.2423618 30.2029859 43.2690151 29.2274366 43.2690151 29.0033239 43.2823417 28.7660282 43.2823417 28.5419155L43.2823417 28.2250141C43.2690151 28.2650704 43.2157085 28.4496338 43.1490754 28.5814648 42.9225226 28.9901408 42.3094975 29.5701972 41.1767337 29.5701972 40.5370553 29.5701972 40.0972764 29.3724507 39.8835377 29.2538028 38.4447739 28.4628169 38.4181206 26.6171831 38.4181206 26.2607324 38.4181206 25.1670423 38.7646131 23.9800563 39.7641106 23.3868169 40.0039899 23.2418028 40.4837487 23.0181972 41.1900603 23.0181972 41.4432663 23.0181972 42.1229246 23.0308732 42.7226231 23.5186479 42.9758291 23.7169014 43.1224221 23.927831 43.1757286 24.0332958 43.2423618 24.1651268 43.2690151 24.2569014 43.2823417 24.3101408L43.2823417 23.1500282 44.0419598 23.1500282 44.0419598 28.7660282C44.0419598 29.280169 44.0552864 29.7811268 44.0153065 30.2820845zM42.8159095 24.3760563C42.6160101 24.0992113 42.1495779 23.6905352 41.2833467 23.6905352 41.163407 23.6905352 40.8568945 23.6905352 40.5503819 23.8086761 39.204392 24.3233239 39.2177186 25.9712113 39.2177186 26.2480563 39.2177186 27.1703662 39.4842513 27.8031549 39.6974774 28.1068732 39.8835377 28.3837183 40.1639095 28.6210141 40.4837487 28.739662 40.8169146 28.871493 41.1101005 28.871493 41.2433668 28.871493 41.4432663 28.871493 41.9763317 28.871493 42.4560905 28.5287324 43.1357487 28.0409577 43.2423618 27.1181408 43.2556884 26.3535211 43.2556884 26.2216901 43.308995 25.0747606 42.8159095 24.3760563zM50.4520704 23.7828169C50.2921508 23.7564507 50.1455578 23.7432676 49.9589849 23.7432676 48.9861407 23.7432676 48.3859296 24.3101408 48.2398492 25.2329577 48.1865427 25.5620282 48.1727035 25.9843944 48.1727035 26.7226479L48.1727035 29.4383662 47.3869447 29.4383662 47.3869447 23.1500282 48.1727035 23.1500282 48.1727035 24.1514366C48.2126834 24.0459718 48.2793166 23.927831 48.3464623 23.8350423 48.4259095 23.7169014 48.6924422 23.3868169 49.0927538 23.2159437 49.266 23.136338 49.5458593 23.0577465 49.9989648 23.0577465 50.1055779 23.0577465 50.2388442 23.0577465 50.465397 23.0841127L50.4520704 23.7828169zM57.0221005 29.1087887C56.7688945 28.8578028 56.7555678 28.5946479 56.7422412 28.2914366 56.6622814 28.4891831 56.5556683 28.6737465 56.4090754 28.8319437 56.1558693 29.1219718 55.4895377 29.5701972 54.4900402 29.5701972 53.6771156 29.5701972 53.2368241 29.2933521 52.9702915 29.0296901 52.8103719 28.871493 52.4905327 28.4628169 52.4905327 27.8563944 52.4905327 27.671831 52.5171859 27.2499718 52.8370251 26.867662 53.3172965 26.2876056 54.1035678 26.1030423 54.7960402 25.9047887 55.1963518 25.799831 55.5961508 25.6811831 55.9959497 25.6020845L56.7422412 25.4438873 56.7422412 25.1143099C56.7422412 24.8770141 56.7555678 24.7451831 56.675608 24.5073803 56.5423417 24.0992113 56.1820101 23.663662 55.2224925 23.6773521 54.4095678 23.6773521 53.9969548 23.9014648 53.7837286 24.2173521 53.5838291 24.5210704 53.5566633 24.8501408 53.5433367 25.1934085L52.6771055 25.0483944C52.7037588 24.9165634 52.7837186 24.3760563 53.0502513 23.9541972 53.3434372 23.5186479 53.9697889 22.9913239 55.1696985 22.9913239 55.8093769 22.9913239 56.675608 23.1500282 57.1153869 23.663662 57.5418392 24.1651268 57.5018593 24.8374648 57.5018593 25.4438873L57.5018593 27.4609014C57.5018593 28.0673239 57.4885327 28.4891831 57.7150854 28.6737465 57.9149849 28.8319437 58.2348241 28.8187606 58.4480503 28.8187606L58.4480503 29.4383662C57.7017588 29.4383662 57.2886332 29.3724507 57.0221005 29.1087887zM56.7422412 26.1157183L56.3424422 26.2216901C55.1025528 26.5512676 54.0364221 26.8017465 53.6499497 27.0785915 53.4100704 27.2499718 53.2506633 27.54 53.2506633 27.8432113 53.2506633 28.0541408 53.3434372 28.2387042 53.370603 28.2914366 53.6632764 28.871493 54.3834271 28.8846761 54.5300201 28.8846761 55.3029648 28.8846761 56.2491558 28.4232676 56.568995 27.6981972 56.6889347 27.4345352 56.7422412 27.1703662 56.7422412 26.5908169L56.7422412 26.1157183zM66.1103518 27.3949859C65.9904121 27.8563944 65.4306935 29.5833803 63.5782915 29.5833803 62.578794 29.5833803 62.0457286 29.0428732 61.8325025 28.7132958 61.7658693 28.6210141 61.7392161 28.5682817 61.6592563 28.3837183L61.6592563 32.7736901 60.8863116 32.7736901 60.8863116 23.1500282 61.6592563 23.1500282 61.6592563 24.1783099C61.7525427 23.9673803 61.8191759 23.8619155 61.8991357 23.7691268 62.1256884 23.4664225 62.6454271 23.0181972 63.5782915 23.0181972 64.2579497 23.0181972 64.6577487 23.2022535 64.8976281 23.3472676 65.8704724 23.9541972 66.2436181 25.2593239 66.2436181 26.3139718 66.2436181 26.5249014 66.2302915 26.8935211 66.1103518 27.3949859zM65.2574472 25.1006197C64.8714874 23.9014648 63.9381106 23.7295775 63.4450251 23.7295775 63.1651658 23.7295775 62.8586533 23.795493 62.6187739 23.927831 62.1390151 24.1909859 61.8591558 24.732 61.7525427 25.2329577 61.6859095 25.5620282 61.6725829 25.8784225 61.6592563 26.208507 61.632603 26.9989859 61.6725829 27.9091268 62.3522412 28.4628169 62.7786935 28.8187606 63.2451256 28.8319437 63.4583518 28.8319437 64.9242814 28.8319437 65.4306935 27.4208451 65.4306935 26.208507 65.4306935 26.0107606 65.4173668 25.5889014 65.2574472 25.1006197zM73.3200603 29.4383662L73.3200603 26.0107606C73.3200603 25.8130141 73.3072462 25.6152676 73.3072462 25.404338 73.293407 24.7842254 73.2134472 24.1783099 72.5737688 23.8745915 72.3338894 23.7691268 72.0940101 23.7295775 71.8274774 23.7295775 70.8546332 23.7295775 70.4148543 24.2705915 70.2282814 24.6128451 69.9750754 25.1143099 69.9617487 25.6279437 69.9617487 26.7226479L69.9617487 29.4383662 69.1621508 29.4383662 69.1621508 20.1310986 69.9617487 20.1310986 69.9617487 24.1514366C69.9750754 24.1123944 70.0683618 23.940507 70.1749749 23.8086761 70.4015276 23.5059718 70.9479196 23.0181972 71.9340905 23.0181972 72.2139497 23.0181972 73.1334874 23.0704225 73.6798794 23.795493 74.0396985 24.2705915 74.093005 24.7842254 74.093005 25.8921127L74.093005 29.4383662 73.3200603 29.4383662zM79.2637387 30.348C78.6640402 31.8508732 78.4374874 32.6286761 77.4246633 32.6286761 76.9848844 32.6286761 76.7183518 32.4709859 76.5850854 32.3781972L76.5850854 31.5872113C76.9449045 31.8376901 77.1981106 31.8904225 77.4113367 31.8904225 77.8644422 31.8904225 77.9843819 31.6003944 78.2642412 30.9412394 78.344201 30.743493 78.4374874 30.5457465 78.5174472 30.348L78.8506131 29.4383662 76.6517186 23.1500282 77.4113367 23.1500282 79.2637387 28.5023662 81.3293668 23.1500282 82.1289648 23.1500282 79.2637387 30.348zM5.38344724 8.42349296C5.05950754 8.58371831 4.63766834 8.7444507 3.84319598 8.87222535 3.40546734 8.95284507 2.93544724 8.96856338 2.53001005 9.20940845 2.25425126 9.38585915 2.05998995 9.65864789 2.05998995 10.0115493 2.05998995 10.4922254 2.41673367 10.9576901 3.38957789 10.9576901 4.45929648 10.9576901 5.09179899 10.4121127 5.27017085 10.043493 5.39984925 9.78692958 5.38344724 9.56230986 5.38344724 9.30574648L5.38344724 8.42349296zM5.38344724 12.4169577L5.33475377 11.7917746C5.02670352 12.048338 4.75145729 12.1766197 4.58897487 12.240507 4.05437186 12.4813521 3.55154774 12.6096338 2.95133668 12.6096338 2.56281407 12.6096338 1.10303518 12.5614648.357768844 11.3744789.227577889 11.1660845-.0153768844 10.7330704.000512562814 10.091662.000512562814 9.64242254.114301508 8.7444507 1.10303518 8.0868169 1.76782915 7.63757746 2.40033166 7.54123944 3.14611055 7.39673239 4.3460201 7.15639437 4.78374874 7.06005634 5.38344724 6.85166197 5.38344724 6.64326761 5.36755779 6.38670423 5.27017085 6.19402817 5.10768844 5.88929577 4.70276382 5.64895775 3.98927638 5.64895775 3.24349749 5.64895775 2.77347739 5.87307042 2.56281407 6.14585915 2.33574874 6.41864789 2.35163819 6.73960563 2.35163819 6.85166197L.373658291 6.73960563C.390060302 6.38670423.454643216 5.53639437 1.24911558 4.89498592 1.7519397 4.47819718 2.51360804 4.15723944 3.9241809 4.15723944 5.25376884 4.15723944 6.03235176 4.43002817 6.53466332 4.78292958 6.87551759 5.02326761 7.05337688 5.29605634 7.11847236 5.42433803 7.32913568 5.84112676 7.32913568 6.40242254 7.32913568 6.85166197L7.32913568 11.1179155C7.32913568 11.7273803 7.36142714 11.903831 7.6858794 12.4169577L5.38344724 12.4169577zM16.1805829 12.4169577L16.1805829 8.32715493C16.1805829 7.70146479 16.1805829 7.39673239 16.099598 7.09250704 15.8725327 6.16208451 15.1426432 6.03380282 14.7541206 6.03380282 14.5429447 6.03380282 14.1375075 6.06574648 13.7320704 6.40242254 13.1487739 6.88360563 12.970402 7.55746479 12.970402 8.93661972L12.970402 12.4169577 11.0083116 12.4169577 11.0083116 4.39757746 12.970402 4.39757746 12.970402 5.34371831C13.0026935 5.29605634 13.1651759 5.08766197 13.3271457 4.92692958 14.0893266 4.2216338 15.1918492 4.15723944 15.4670955 4.15723944 16.667005 4.15723944 17.3640905 4.76670423 17.6234472 5.13532394 18.1426734 5.87307042 18.0939799 6.88360563 18.0939799 7.70146479L18.0939799 12.4169577 16.1805829 12.4169577zM26.9121106 12.4169577L26.9121106 8.32715493C26.9121106 7.70146479 26.9121106 7.39673239 26.8316382 7.09250704 26.6045729 6.16208451 25.8746834 6.03380282 25.4856482 6.03380282 25.2749849 6.03380282 24.8695477 6.06574648 24.4641106 6.40242254 23.8803015 6.88360563 23.7024422 7.55746479 23.7024422 8.93661972L23.7024422 12.4169577 21.7403518 12.4169577 21.7403518 4.39757746 23.7024422 4.39757746 23.7024422 5.34371831C23.7347337 5.29605634 23.8967035 5.08766197 24.0586734 4.92692958 24.8208543 4.2216338 25.9233769 4.15723944 26.1991357 4.15723944 27.3990452 4.15723944 28.0956181 4.76670423 28.3554874 5.13532394 28.874201 5.87307042 28.8255075 6.88360563 28.8255075 7.70146479L28.8255075 12.4169577 26.9121106 12.4169577zM39.3791759 11.4545915C38.9250452 11.8713803 37.8389246 12.6578028 36.168995 12.6578028 35.6502814 12.6578028 34.3693869 12.5934085 33.2668643 11.5828732 32.3427136 10.7168451 32.0023719 9.61047887 32.0023719 8.35909859 32.0023719 7.68574648 32.0997588 7.04433803 32.3591156 6.43487324 32.7158593 5.63273239 33.720995 4.15723944 36.0721206 4.15723944 37.8876181 4.15723944 38.8440603 5.08766197 39.2658995 5.69712676 39.6385327 6.25842254 40.0116784 7.23650704 40.0603719 8.79211268L34.0613367 8.79211268C34.0936281 9.03295775 34.1746131 9.52985915 34.5800503 10.0115493 34.855809 10.3482254 35.3422312 10.7812394 36.3473668 10.7812394 37.3525025 10.7812394 37.9363116 10.3162817 38.1956683 10.043493 38.2607638 9.97909859 38.3576382 9.8508169 38.4714271 9.6743662L40.1249548 10.6210141C39.9952764 10.7969577 39.7682111 11.1021972 39.3791759 11.4545915zM53.4346734 12.4169577L53.4346734 7.50929577C53.4346734 7.20456338 53.3700905 5.95369014 52.072794 5.95369014 51.7647437 5.95369014 51.0676583 6.06574648 50.6299296 6.7715493 50.2567839 7.34907042 50.2408945 8.00619718 50.2408945 8.64811268L50.2408945 12.4169577 48.3110955 12.4169577 48.3110955 7.92608451C48.3110955 7.75014085 48.295206 7.5731831 48.295206 7.39673239 48.295206 7.23650704 48.295206 6.67521127 47.8574774 6.27414085 47.5330251 5.9856338 47.1275879 5.96940845 46.9820201 5.96940845 46.7872462 5.96940845 46.3659196 6.01757746 45.9604824 6.35476056 45.1660101 7.02811268 45.149608 8.15070423 45.149608 9.0491831L45.149608 12.4169577 43.2039196 12.4169577 43.2039196 4.39757746 45.149608 4.39757746 45.1660101 5.29605634C45.2956884 5.11960563 45.3443819 5.07143662 45.4253668 5.00704225 45.7011256 4.75098592 46.5765829 4.15723944 47.711397 4.15723944 48.6355477 4.15723944 49.511005 4.57402817 49.9651357 5.37616901 50.1112161 5.19971831 50.2731859 4.97509859 50.7109146 4.68659155 51.0512563 4.46197183 51.6191759 4.15723944 52.5756181 4.15723944 53.8078191 4.15723944 54.9098291 4.68659155 55.2506834 5.93746479 55.3475578 6.30608451 55.3639598 6.62704225 55.3639598 7.34907042L55.3639598 12.4169577 53.4346734 12.4169577zM63.7935678 12.4169577L63.7448744 11.7917746C63.4368241 12.048338 63.1610653 12.1766197 62.9990955 12.240507 62.4639799 12.4813521 61.9611558 12.6096338 61.3614573 12.6096338 60.9724221 12.6096338 59.5131558 12.5614648 58.7673769 11.3744789 58.6376985 11.1660845 58.3947437 10.7330704 58.4106332 10.091662 58.4106332 9.64242254 58.5244221 8.7444507 59.5131558 8.0868169 60.1779497 7.63757746 60.8104523 7.54123944 61.5562312 7.39673239 62.7561407 7.15639437 63.1938693 7.06005634 63.7935678 6.85166197 63.7935678 6.64326761 63.7771658 6.38670423 63.6797789 6.19402817 63.517809 5.88929577 63.1123719 5.64895775 62.399397 5.64895775 61.6536181 5.64895775 61.1830854 5.87307042 60.9724221 6.14585915 60.7453568 6.41864789 60.7617588 6.73960563 60.7617588 6.85166197L58.7837789 6.73960563C58.7996683 6.38670423 58.8647638 5.53639437 59.6592362 4.89498592 60.1620603 4.47819718 60.9237286 4.15723944 62.3343015 4.15723944 63.6638894 4.15723944 64.4419598 4.43002817 64.9447839 4.78292958 65.2851256 5.02326761 65.4634975 5.29605634 65.5280804 5.42433803 65.7387437 5.84112676 65.7387437 6.40242254 65.7387437 6.85166197L65.7387437 11.1179155C65.7387437 11.7273803 65.7715477 11.903831 66.096 12.4169577L63.7935678 12.4169577zM71.460995 7.66952113C71.3154271 8.11876056 71.3154271 8.51983099 71.3154271 8.98478873L71.3154271 12.4169577 69.4343216 12.4169577 69.4343216 4.39757746 71.3154271 4.39757746 71.3154271 5.53639437C71.4451055 5.29605634 71.6070754 5.05521127 71.8013367 4.87926761 72.4502412 4.25357746 73.5040704 4.2216338 73.7311357 4.2216338L73.8931055 4.2216338 73.8931055 6.19402817C73.4876683 6.19402817 71.9310151 6.19402817 71.460995 7.66952113zM76.8106131 12.4169577L78.7404121 12.4169577 78.7404121 4.39757746 76.8106131 4.39757746 76.8106131 12.4169577zM76.8106131 3.14670423L78.7404121 3.14670423 78.7404121 1.20625352 76.8106131 1.20625352 76.8106131 3.14670423zM89.3591759 11.4545915C88.9050452 11.8713803 87.8189246 12.6578028 86.148995 12.6578028 85.6302814 12.6578028 84.3493869 12.5934085 83.2468643 11.5828732 82.3227136 10.7168451 81.9823719 9.61047887 81.9823719 8.35909859 81.9823719 7.68574648 82.0792462 7.04433803 82.3391156 6.43487324 82.6953467 5.63273239 83.7004824 4.15723944 86.051608 4.15723944 87.8676181 4.15723944 88.8240603 5.08766197 89.2458995 5.69712676 89.6185327 6.25842254 89.9916784 7.23650704 90.0403719 8.79211268L84.0413367 8.79211268C84.0736281 9.03295775 84.1546131 9.52985915 84.5600503 10.0115493 84.835809 10.3482254 85.3217186 10.7812394 86.3273668 10.7812394 87.3325025 10.7812394 87.9163116 10.3162817 88.1756683 10.043493 88.2402513 9.97909859 88.3376382 9.8508169 88.4509146 9.6743662L90.1049548 10.6210141C89.9752764 10.7969577 89.7482111 11.1021972 89.3591759 11.4545915zM120.591678 12.2496338L120.591678 7.83887324C120.591678 7.19746479 120.62397 6.6204507 120.072965 6.15498592 119.910995 6.01047887 119.602432 5.81830986 119.067317 5.81830986 118.402523 5.81830986 117.86792 6.09109859 117.462482 6.588 117.300513 6.78067606 117.170834 7.02101408 117.105739 7.26185915 117.040643 7.50219718 117.040643 7.69487324 117.040643 7.95143662L117.040643 12.2496338 115.095467 12.2496338 115.095467.926366197 117.040643.926366197 117.040643 5.04861972C117.203126 4.87216901 117.397899 4.69571831 117.819226 4.45487324 118.127276 4.27842254 118.711085 3.98991549 119.602432 3.98991549 120.494804 3.98991549 121.467136 4.3103662 122.002251 5.04861972 122.504563 5.75442254 122.504563 6.49216901 122.504563 7.29380282L122.504563 12.2496338 120.591678 12.2496338zM133.723538 10.0044507C133.399085 10.8223099 132.345256 12.4904789 129.929548 12.4904789 129.589206 12.4904789 128.891608 12.4742535 128.097648 12.1213521 127.254482 11.7527324 125.714231 10.6296338 125.714231 8.208 125.714231 7.34197183 125.957698 6.70056338 126.070462 6.4115493 126.410804 5.60991549 127.448744 3.98991549 129.864965 3.98991549 130.172503 3.98991549 130.88599 4.02185915 131.648171 4.35904225 132.523628 4.72766197 134.031588 5.80208451 134.047477 8.208 134.047477 8.49650704 134.031588 9.25047887 133.723538 10.0044507zM144.796432 10.0044507C144.47198 10.8223099 143.417638 12.4904789 141.00193 12.4904789 140.661588 12.4904789 139.964503 12.4742535 139.17003 12.1213521 138.327377 11.7527324 136.787126 10.6296338 136.787126 8.208 136.787126 7.34197183 137.03008 6.70056338 137.143357 6.4115493 137.483698 5.60991549 138.521126 3.98991549 140.937347 3.98991549 141.245397 3.98991549 141.958372 4.02185915 142.721065 4.35904225 143.596523 4.72766197 145.10397 5.80208451 145.119859 8.208 145.119859 8.49650704 145.10397 9.25047887 144.796432 10.0044507zM155.203508 13.7094085C154.701196 14.3827606 153.646854 14.927831 151.814955 14.927831 149.998945 14.927831 149.107598 14.4309296 148.604774 13.7251268 148.41 13.4366197 148.26392 13.0994366 148.102462 12.4103662L150.242412 12.4260845C150.290593 12.5863099 150.323397 12.6826479 150.437186 12.8271549 150.858513 13.4366197 151.749859 13.4203944 151.89594 13.4203944 152.868784 13.4203944 153.371095 13.0517746 153.582271 12.6664225 153.809337 12.2496338 153.792935 11.8328451 153.792935 10.9343662 152.885186 11.736507 151.749859 11.7846761 151.344935 11.7846761 150.858513 11.7846761 150.323397 11.7040563 149.869266 11.495662 149.009698 11.1270423 147.842593 10.1646761 147.842593 7.96715493 147.842593 7.71059155 147.842593 6.95712676 148.118352 6.25132394 148.669357 4.85594366 149.983055 3.98991549 151.506905 3.98991549 151.782663 3.98991549 152.560734 4.02185915 153.225528 4.50304225 153.517176 4.71143662 153.727839 4.98422535 153.792935 5.08056338L153.792935 4.23025352 155.722221 4.23025352 155.722221 10.8223099C155.722221 11.7527324 155.819095 12.8910423 155.203508 13.7094085zM167.848945 12.2496338L165.919658 12.2496338 164.460392 7.13357746 162.920141 12.2496338 160.990342 12.2496338 158.639729 4.23025352 160.666402 4.23025352 162.076462 9.71594366 163.584935 4.23025352 165.31996 4.23025352 166.811518 9.71594366 168.253869 4.23025352 170.280543 4.23025352 167.848945 12.2496338zM180.720935 10.0044507C180.396995 10.8223099 179.342653 12.4904789 176.926945 12.4904789 176.586603 12.4904789 175.889518 12.4742535 175.095045 12.1213521 174.251879 11.7527324 172.712141 10.6296338 172.712141 8.208 172.712141 7.34197183 172.955095 6.70056338 173.068372 6.4115493 173.408714 5.60991549 174.446141 3.98991549 176.862362 3.98991549 177.170412 3.98991549 177.883387 4.02185915 178.64608 4.35904225 179.521538 4.72766197 181.028985 5.80208451 181.044874 8.208 181.044874 8.49650704 181.028985 9.25047887 180.720935 10.0044507zM189.653367 12.2496338L189.637477 11.4317746C189.23204 11.8003944 188.437568 12.4418028 187.026995 12.4418028 185.681005 12.4418028 185.016211 11.8647887 184.692784 11.3836056 184.173558 10.6296338 184.222251 9.71594366 184.222251 8.84940845L184.222251 4.23025352 186.183829 4.23025352 186.183829 8.56090141C186.183829 9.21853521 186.151538 10.0044507 186.832221 10.3892958 187.091578 10.5495211 187.464724 10.6296338 187.772774 10.6296338 188.712814 10.6296338 189.183347 10.020169 189.345829 9.73166197 189.669769 9.12219718 189.653367 8.25616901 189.653367 7.63047887L189.653367 4.23025352 191.599055 4.23025352 191.599055 12.2496338 189.653367 12.2496338zM200.725749 12.2496338L200.725749 11.4799437C200.644764 11.5600563 200.580181 11.6563944 200.498683 11.736507 200.190633 12.0250141 199.525839 12.4904789 198.47201 12.4904789 198.196251 12.4904789 197.612955 12.4580282 196.96405 12.1532958 196.088593 11.7527324 194.872794 10.7097465 194.872794 8.40067606 194.872794 5.94659155 196.218271 4.67949296 197.142935 4.26270423 197.401779 4.15014085 197.871799 3.98991549 198.553508 3.98991549 198.828754 3.98991549 199.41205 4.0056338 200.028151 4.3428169 200.14194 4.40670423 200.239327 4.45487324 200.433588 4.59938028 200.580181 4.71143662 200.692945 4.85594366 200.725749 4.88788732L200.725749.926366197 202.655035.926366197 202.655035 12.2496338 200.725749 12.2496338zM200.352603 6.6204507C200.255729 6.44349296 200.076844 6.23509859 199.931276 6.12304225 199.606824 5.86647887 199.250593 5.77014085 198.845156 5.77014085 198.682673 5.77014085 198.261347 5.80208451 197.85591 6.05864789 196.931759 6.65239437 196.899467 7.95143662 196.899467 8.19177465 196.899467 9.37876056 197.401779 10.7421972 198.828754 10.7421972 199.347467 10.7421972 199.752905 10.5819718 200.093246 10.1966197 200.59607 9.6515493 200.725749 8.99391549 200.709859 8.27188732 200.709859 7.75876056 200.628362 7.10112676 200.352603 6.6204507zM176.83007 5.72197183C176.651698 5.72197183 176.165276 5.75442254 175.727035 6.02670423 175.305709 6.29949296 174.738302 6.95712676 174.738302 8.15983099 174.738302 8.5451831 174.770593 8.88185915 174.900271 9.25047887 175.030462 9.63532394 175.597357 10.7259718 176.926945 10.7259718 178.402613 10.7259718 179.067407 9.44264789 179.018714 8.17605634 178.986422 6.9251831 178.256533 5.72197183 176.83007 5.72197183zM153.71195 7.08540845C153.582271 6.65239437 153.144543 5.70574648 151.830844 5.70574648 151.555598 5.70574648 150.907206 5.75442254 150.388492 6.31521127 149.820573 6.9251831 149.836975 7.66292958 149.836975 7.91949296 149.836975 8.17605634 149.836975 8.8656338 150.355688 9.44264789 150.437186 9.52326761 150.615045 9.69971831 150.874402 9.828 151.036372 9.90811268 151.360824 10.0363944 151.847246 10.0363944 152.625829 10.0363944 153.063558 9.73166197 153.290623 9.49132394 153.841628 8.94574648 153.841628 8.23994366 153.841628 7.98338028 153.841628 7.53414085 153.776533 7.26185915 153.71195 7.08540845zM140.905055 5.72197183C140.726683 5.72197183 140.240261 5.75442254 139.80202 6.02670423 139.380693 6.29949296 138.813799 6.95712676 138.813799 8.15983099 138.813799 8.5451831 138.845578 8.88185915 138.975256 9.25047887 139.105447 9.63532394 139.672854 10.7259718 141.00193 10.7259718 142.477598 10.7259718 143.142392 9.44264789 143.093698 8.17605634 143.061407 6.9251831 142.331518 5.72197183 140.905055 5.72197183zM129.832161 5.72197183C129.654302 5.72197183 129.167367 5.75442254 128.729638 6.02670423 128.308312 6.29949296 127.740392 6.95712676 127.740392 8.15983099 127.740392 8.5451831 127.773196 8.88185915 127.902874 9.25047887 128.033065 9.63532394 128.59996 10.7259718 129.929548 10.7259718 131.405216 10.7259718 132.07001 9.44264789 132.021317 8.17605634 131.988513 6.9251831 131.258623 5.72197183 129.832161 5.72197183zM87.7379397 6.72338028C87.5595678 6.33853521 87.1377286 5.69712676 86.0838995 5.69712676 85.6625729 5.69712676 85.4355075 5.77723944 85.2735377 5.84112676 84.3652764 6.21025352 84.1546131 7.10822535 84.1059196 7.38101408L87.8999095 7.38101408C87.8999095 7.38101408 87.8512161 6.99616901 87.7379397 6.72338028zM63.7935678 8.42349296C63.4691156 8.58371831 63.0477889 8.7444507 62.2533166 8.87222535 61.8155879 8.95284507 61.3455678 8.96856338 60.9401307 9.20940845 60.6643719 9.38585915 60.4701106 9.65864789 60.4701106 10.0115493 60.4701106 10.4922254 60.8263417 10.9576901 61.7991859 10.9576901 62.8694171 10.9576901 63.5019196 10.4121127 63.6797789 10.043493 63.8094573 9.78692958 63.7935678 9.56230986 63.7935678 9.30574648L63.7935678 8.42349296zM37.7579397 6.72338028C37.5795678 6.33853521 37.1582412 5.69712676 36.1044121 5.69712676 35.6825729 5.69712676 35.4555075 5.77723944 35.2935377 5.84112676 34.3852764 6.21025352 34.1746131 7.10822535 34.1264322 7.38101408L37.9199095 7.38101408C37.9199095 7.38101408 37.8712161 6.99616901 37.7579397 6.72338028z"/>
    <path fill="#84BF41" d="M103.888794,5.46642254 L109.883216,5.46642254 L109.883216,0.193690141 L103.888794,0.193690141 L103.888794,5.46642254 Z M103.888794,13.3737465 L109.883216,13.3737465 L109.883216,8.10202817 L103.888794,8.10202817 L103.888794,13.3737465 Z M95.3382211,5.46642254 L101.333156,5.46642254 L101.333156,0.193690141 L95.3382211,0.193690141 L95.3382211,5.46642254 Z M95.3382211,13.3737465 L101.333156,13.3737465 L101.333156,8.10202817 L95.3382211,8.10202817 L95.3382211,13.3737465 Z"/>
    <path fill="#1A1918" d="M172.001729,29.5661408 C171.978151,29.5661408 171.954573,29.5661408 171.930482,29.5651268 C171.190342,29.5352113 170.320523,29.0484507 169.659317,28.2944789 C169.269256,27.8487887 169.162131,27.1480563 169.219538,26.3504789 C168.588573,27.6682817 167.923779,28.620507 167.245146,28.8096338 C166.938121,28.8948169 166.64801,28.8233239 166.37994,28.5971831 C165.835085,28.1383099 165.768452,27.5192113 166.196955,26.8996056 C166.757698,26.0873239 168.042693,25.4580845 168.573196,25.740507 C168.73209,25.8251831 168.960181,26.0594366 168.703899,26.6785352 C168.673146,26.7525634 168.586523,26.7875493 168.512201,26.7576338 C168.437367,26.7272113 168.400975,26.6425352 168.431729,26.568 C168.504513,26.3930704 168.601387,26.0858028 168.433779,25.9960563 C168.071397,25.8038873 166.938633,26.3423662 166.439397,27.0633803 C166.090854,27.5678873 166.134422,28.0090141 166.570101,28.3761127 C166.762312,28.5378592 166.957085,28.5885634 167.165698,28.5297465 C167.90994,28.3223662 168.706975,26.8610704 169.377407,25.2765634 C169.822312,23.1434366 170.981216,20.8262535 170.999668,20.7902535 C171.035548,20.7212958 171.119608,20.6913803 171.190854,20.7233239 C171.261588,20.7547606 171.29593,20.8363944 171.267739,20.9083944 C171.209307,21.0574648 171.11397,21.3444507 170.988392,21.7232113 C170.569116,22.9892958 170.119085,24.2731268 169.646503,25.3957183 C169.417387,26.5299718 169.406623,27.5623099 169.881769,28.104338 C170.491206,28.8 171.281065,29.2482254 171.942784,29.2745915 C172.27595,29.2867606 172.550683,29.1929577 172.757246,28.991662 C172.816704,28.9348732 172.908965,28.9358873 172.965347,28.9936901 C173.022241,29.0504789 173.021216,29.1427606 172.963809,29.1990423 C172.714704,29.4398873 172.383588,29.5661408 172.001729,29.5661408 Z M113.128251,35.2906479 C113.097497,35.2906479 113.066231,35.280507 113.040603,35.2612394 C112.996523,35.2287887 112.974482,35.1740282 112.983709,35.1202817 C113.332764,33.1428169 115.12007,32.1059155 116.836131,31.2414085 C118.004774,29.4890704 118.937638,27.3853521 119.119598,25.4007887 C119.105246,25.4261408 119.089869,25.452 119.075005,25.4778592 C118.350754,26.7327887 117.450693,28.2924507 116.646482,28.2929577 C116.640332,28.2929577 116.634181,28.2924507 116.628543,28.2924507 C116.350734,28.2848451 116.11803,28.0982535 115.937608,27.7387606 C115.860724,27.5856338 115.897628,27.2307042 115.995015,26.8123944 C115.497829,27.383831 114.886854,27.8462535 114.253839,28.0941972 C113.554704,28.368 112.913487,28.3431549 112.399387,28.0221972 C112.136442,27.8579155 111.934492,27.6500282 111.787899,27.4157746 C111.221518,27.9212958 110.609518,28.3421408 110.053387,28.6747606 C109.983678,28.7168451 109.89398,28.6945352 109.85195,28.6255775 C109.80992,28.5571268 109.83196,28.4678873 109.901668,28.4263099 C110.462412,28.0901408 111.081588,27.6637183 111.648482,27.1490704 C111.376312,26.5152676 111.438332,25.7587606 111.721266,25.1721127 C112.120553,24.3471549 112.870945,23.9810704 113.638764,24.2381408 C113.709497,24.2624789 113.750503,24.335493 113.734101,24.408 C113.481407,25.5148732 112.805337,26.4518873 112.007789,27.2129577 C112.134905,27.432 112.315327,27.6261972 112.556231,27.7767887 C113.101085,28.116507 113.720774,27.9907606 114.145688,27.8239437 C114.938111,27.5136338 115.712593,26.8149296 116.230794,26.0026479 C116.404553,25.4966197 116.615216,25.0179718 116.785899,24.7695211 C116.826392,24.7112113 116.903789,24.6899155 116.968372,24.7188169 C117.033467,24.7482254 117.067809,24.8192113 117.049869,24.887662 C116.937106,25.3171268 116.743357,25.7450704 116.491688,26.1451268 C116.273337,26.8012394 116.128794,27.4659718 116.201065,27.6094648 C116.329719,27.8650141 116.476312,27.9973521 116.636744,28.0019155 C117.261045,28.0252394 118.202623,26.4037183 118.820261,25.3338592 C118.947377,25.1127887 119.065779,24.9074366 119.171879,24.732 C119.206221,24.6752113 119.274392,24.6493521 119.338462,24.6665915 C119.402533,24.6848451 119.446101,24.7426479 119.445075,24.8085634 C119.418422,26.8630986 118.525025,29.0976338 117.334854,30.9924507 C118.078583,30.6233239 118.779769,30.2729577 119.344101,29.8693521 C119.409709,29.8227042 119.501457,29.8369014 119.549638,29.9018028 C119.597307,29.9667042 119.58193,30.0579718 119.516322,30.1046197 C118.922774,30.5290141 118.196472,30.8900282 117.428141,31.271831 C117.292312,31.3387606 117.156995,31.4061972 117.021678,31.4741408 C115.803317,33.2802254 114.345075,34.7126197 113.193347,35.2754366 C113.172844,35.2855775 113.150291,35.2906479 113.128251,35.2906479 Z M123.351829,28.9500845 C123.261618,28.9500845 123.174995,28.9475493 123.091447,28.9424789 C122.547618,28.9100282 122.194975,28.764507 122.042231,28.5109859 C121.818754,28.1383099 121.777749,27.6789296 121.856683,27.2073803 C121.018131,27.5683944 120.161126,27.8219155 119.591668,27.9704789 C119.514784,27.9912676 119.432774,27.9451268 119.411759,27.8670423 C119.391256,27.7894648 119.437899,27.7098592 119.516322,27.6895775 C120.00992,27.5607887 120.997116,27.2768451 121.937668,26.8504225 C122.065809,26.4027042 122.286724,25.9615775 122.546593,25.5894085 C123.107849,24.7882817 123.803397,24.3532394 124.364141,24.4505915 C124.432312,24.4627606 124.482543,24.5200563 124.485106,24.588507 C124.52406,25.6573521 123.421538,26.4777465 122.188312,27.0578028 C122.073497,27.5344225 122.080161,28.0049577 122.294412,28.3624225 C122.393337,28.5261972 122.674221,28.6265915 123.108874,28.6524507 C124.881317,28.7548732 128.185809,27.6540845 128.629688,27.0851831 C128.677869,27.0212958 128.771156,27.0101408 128.835226,27.0588169 C128.899809,27.108 128.911085,27.1992676 128.861879,27.2626479 C128.341628,27.9304225 125.201668,28.9500845 123.351829,28.9500845 Z M137.420653,29.2091831 C137.398613,29.2091831 137.37606,29.2046197 137.355045,29.1939718 C137.290462,29.1620282 137.259196,29.088507 137.280724,29.0200563 C137.474472,28.415662 137.871196,27.8340845 138.254593,27.2717746 C138.666181,26.6678873 139.09007,26.0462535 139.242302,25.4144789 C138.394523,25.9063099 137.381698,26.3606197 136.536995,26.1050704 C136.366824,26.0533521 136.211518,25.9742535 136.070563,25.8682817 C136.223819,26.7089577 136.116693,27.756507 135.658462,28.3781408 C135.394492,28.7371268 134.896794,29.1199437 134.032613,28.9100282 C133.49801,28.7802254 133.131015,28.4486197 132.998774,27.9755493 C132.822452,27.3458028 133.094623,26.5406197 133.674844,25.9727324 C134.185869,25.4722817 134.838362,25.2172394 135.559538,25.2436056 C135.538523,25.2035493 135.518533,25.1624789 135.499055,25.1198873 C135.467276,25.0499155 135.49598,24.9677746 135.564663,24.9317746 C135.632322,24.8967887 135.71792,24.9190986 135.758412,24.984 C135.801467,25.0539718 135.841447,25.1305352 135.877839,25.2131831 C135.891166,25.2349859 135.904492,25.2562817 135.917819,25.2770704 C136.041347,25.2968451 136.165387,25.3242254 136.28994,25.3597183 C136.367849,25.3820282 136.412955,25.4626479 136.390402,25.5397183 C136.372462,25.6005634 136.318131,25.6411268 136.257136,25.6446761 C136.367337,25.7258028 136.489839,25.7861408 136.623106,25.8267042 C137.445256,26.076169 138.519075,25.5179155 139.362241,25.0037746 C139.40991,24.9743662 139.469367,24.9753803 139.517035,25.0037746 C139.564191,25.0331831 139.590332,25.0859155 139.585719,25.1406761 C139.523698,25.8089577 139.160804,26.4402254 138.756392,27.0512113 C139.453477,26.2739155 140.290492,25.6223662 141.24591,25.6167887 C141.293065,25.6249014 141.322281,25.632 141.350472,25.6593803 C141.378663,25.6867606 141.39404,25.7237746 141.393528,25.7623099 C141.393015,26.027493 141.266925,26.400169 141.133146,26.7941408 C140.912231,27.4477183 140.63596,28.2615211 140.98194,28.5535775 C141.898402,29.3258028 142.958382,28.6519437 144.301809,27.7985915 C145.169578,27.2469296 146.153698,26.6217465 147.276211,26.2840563 C147.353608,26.2612394 147.435106,26.304338 147.459196,26.3809014 C147.482774,26.4579718 147.438693,26.5390986 147.361296,26.5624225 C146.277739,26.8879437 145.31207,27.5014648 144.460191,28.0429859 C143.071658,28.9252394 141.873286,29.6868169 140.791266,28.7741408 C140.294593,28.3553239 140.591879,27.4766197 140.854824,26.7018592 C140.954261,26.4082817 141.049085,26.1278873 141.084965,25.9159437 C139.719497,26.0457465 138.571869,27.6809577 137.802513,28.7776901 C137.709739,28.9090141 137.623116,29.0337465 137.54008,29.148338 C137.511889,29.1878873 137.466784,29.2091831 137.420653,29.2091831 Z M173.478422,28.812169 C173.123216,28.812169 172.808503,28.7371268 172.595789,28.5627042 C172.396915,28.4009577 172.203166,28.0835493 172.405628,27.491831 C172.431769,27.4157746 172.515317,27.3747042 172.591688,27.4005634 C172.669085,27.4264225 172.71009,27.5090704 172.68395,27.5851268 C172.56401,27.9339718 172.597839,28.188 172.782362,28.3390986 C173.187286,28.6691831 174.296985,28.535831 175.157065,28.0521127 C175.693206,27.7514366 175.972553,27.3995493 175.923859,27.0867042 C175.879266,26.8012394 175.507658,26.2597183 173.512764,25.836338 C173.464583,25.8256901 173.424603,25.7922254 173.407176,25.7465915 C173.389236,25.7009577 173.395899,25.6497465 173.42409,25.6096901 C173.902312,24.9429296 174.99202,24.2589296 175.91207,24.3076056 C176.374402,24.3339718 176.731146,24.5499718 176.944372,24.9332958 C176.983839,25.0032676 176.957698,25.092 176.886452,25.1305352 C176.817256,25.1695775 176.726533,25.1437183 176.687065,25.0732394 C176.523045,24.7781408 176.257025,24.6184225 175.895156,24.5976338 C175.170905,24.5540282 174.289809,25.0585352 173.804412,25.6030986 C175.309296,25.9509296 176.119658,26.4346479 176.214482,27.0425915 C176.282141,27.4811831 175.95,27.9410704 175.302121,28.3051268 C174.765467,28.6068169 174.065819,28.812169 173.478422,28.812169 Z M178.397487,29.0575775 C178.215015,29.0575775 178.063809,29.0195493 177.940281,28.9627606 C177.467698,28.7452394 177.239095,28.1793803 177.311879,27.4101972 C177.436432,26.1106479 178.419015,24.5175211 179.995658,24.1240563 C180.038714,24.1129014 180.084332,24.1220282 180.120211,24.1483944 C180.155578,24.1747606 180.177106,24.215831 180.178643,24.2594366 C180.19402,24.6544225 179.988995,24.9621972 179.586121,25.1498028 C179.513849,25.1837746 179.425176,25.1528451 179.390322,25.079831 C179.355467,25.0073239 179.387246,24.9206197 179.461055,24.8866479 C179.686583,24.7816901 179.818824,24.6447887 179.86598,24.4642817 C178.53793,24.9054085 177.713729,26.2936901 177.604553,27.4370704 C177.54407,28.0673239 177.715779,28.5393803 178.063809,28.6990986 C178.352894,28.8329577 179.230915,28.9374085 181.128422,27.0289014 C181.185317,26.9716056 181.278603,26.9705915 181.336523,27.0268732 C181.39393,27.0831549 181.394955,27.1749296 181.33806,27.2322254 C179.918774,28.6600563 178.991035,29.0575775 178.397487,29.0575775 Z M186.465226,34.4940845 C186.450874,34.4940845 186.437035,34.4920563 186.422683,34.488 C186.344774,34.4646761 186.300693,34.3840563 186.324271,34.3069859 L186.368352,34.1614648 C187.521106,30.348507 188.690774,27.6698028 189.867618,26.1400563 C190.037276,25.8175775 190.212573,25.4905352 190.392995,25.1584225 L188.685136,26.8990986 C187.798402,27.9197746 186.661538,28.3710423 185.798382,28.0404507 C185.367829,27.876169 184.678945,27.3878873 184.594372,25.9433239 C183.97007,26.8519437 183.133055,28.0475493 182.391377,28.1732958 C182.194553,28.2067606 182.017206,28.1651831 181.860362,28.0516056 C181.467739,27.7656338 181.332422,27.0867042 181.531809,26.4006761 C181.670201,25.9230423 182.323719,24.3486761 184.914724,24.156507 C184.980844,24.1544789 185.038251,24.1884507 185.061829,24.2467606 C185.20791,24.6067606 185.141789,24.9520563 184.871156,25.2451268 C184.815799,25.3049577 184.722,25.308 184.663568,25.2547606 C184.603598,25.200507 184.599497,25.1082254 184.653829,25.0494085 C184.82605,24.8633239 184.880894,24.6726761 184.822975,24.455662 C182.51593,24.6696338 181.937246,26.0558873 181.813719,26.4807887 C181.628683,27.1181408 181.785015,27.635831 182.034633,27.8173521 C182.125869,27.8837746 182.223769,27.9055775 182.342171,27.8868169 C182.978774,27.7788169 183.867558,26.4848451 184.398573,25.7116056 C184.47597,25.5995493 184.547729,25.4940845 184.614362,25.3997746 C184.651266,25.3465352 184.718412,25.3247324 184.780945,25.344507 C184.842965,25.3642817 184.88397,25.4225915 184.88192,25.4864789 C184.84809,26.6937465 185.211497,27.5050141 185.90397,27.7691831 C186.652824,28.0551549 187.65796,27.636338 188.467809,26.7028732 L190.928111,24.1960563 C190.979879,24.143831 191.061377,24.1372394 191.121347,24.180338 C191.180291,24.2234366 191.197719,24.3035493 191.162352,24.3674366 C190.989106,24.6787606 190.820472,24.9855211 190.65594,25.2882254 C191.318683,24.7162817 191.98399,24.5094085 192.648271,24.6711549 C193.202352,24.8055211 193.528342,25.199493 193.565246,25.7800563 C193.601638,26.3509859 193.35407,27.035493 192.95991,27.6216338 C193.685186,27.4091831 194.383296,27.1064789 195.014774,26.6719437 C195.065005,26.4493521 195.136764,26.2379155 195.224925,26.0477746 C195.579618,25.283662 196.184955,24.8095775 196.844623,24.779662 C196.90408,24.7730704 196.949698,24.804507 196.976864,24.8506479 C197.004543,24.8962817 197.004543,24.9535775 196.976864,24.9997183 C196.502744,25.7836056 195.92406,26.3849577 195.278231,26.8468732 C195.168543,27.4416338 195.239789,28.1018028 195.631387,28.5971831 C196.264915,29.3978028 197.393578,29.5210141 198.23008,29.484 C200.184482,29.3962817 202.476151,28.3411268 203.234231,27.18 C203.278824,27.1120563 203.369548,27.0932958 203.437719,27.1363944 C203.505889,27.18 203.525367,27.2702535 203.481799,27.3371831 C202.678101,28.5672676 200.279819,29.6832676 198.242894,29.7745352 C196.949186,29.8292958 195.962503,29.4875493 195.400221,28.776169 C195.011698,28.2853521 194.897397,27.6581408 194.952754,27.0649014 C194.24593,27.5075493 193.470422,27.8026479 192.671337,28.0029296 C192.342784,28.3887887 191.954261,28.6970704 191.55805,28.8471549 C190.909146,29.0940845 190.297658,28.9140845 189.837889,28.3401127 C189.803548,28.2980282 189.796884,28.2407324 189.818412,28.1915493 C189.840452,28.1418592 189.888121,28.1089014 189.942965,28.1048451 C190.786643,28.0465352 191.661075,27.948169 192.509367,27.7423099 C192.982975,27.1566761 193.310503,26.3971268 193.27206,25.7983099 C193.242844,25.3419718 193.009628,25.0580282 192.57805,24.9530704 C191.932221,24.7958873 191.092643,25.0397746 190.114161,26.3012958 C188.45807,29.4449577 187.304804,32.1054085 186.605668,34.3911549 C186.586704,34.4540282 186.528271,34.4940845 186.465226,34.4940845 Z M158.123065,29.7192676 C158.07591,29.7192676 158.029779,29.7152113 157.983648,29.7070986 C157.687899,29.6548732 157.434693,29.436338 157.231206,29.0580845 C156.941095,28.5170704 156.893427,27.659662 156.926744,26.8311549 C156.653035,27.5181972 156.264513,28.1961127 155.788854,28.548 C155.483367,28.7736338 155.16404,28.8532394 154.842663,28.7842817 C154.802683,28.775662 154.768854,28.7513239 154.747839,28.7168451 C154.449528,28.224 154.419286,27.6150423 154.659166,26.951831 C154.557166,27.0938028 154.456191,27.2362817 154.358291,27.3762254 C153.710412,28.2949859 153.147106,29.1021972 152.537156,29.0687324 C152.229106,29.0590986 151.953859,28.8491831 151.697578,28.4273239 C150.732935,26.844338 153.697085,21.0792676 154.254754,20.2274366 C154.298834,20.159493 154.38802,20.1407324 154.457729,20.1848451 C154.525899,20.2284507 154.544864,20.3181972 154.500784,20.3856338 C153.684784,21.6324507 151.147598,26.9619718 151.949246,28.2772394 C152.147608,28.6037746 152.349045,28.7721127 152.547407,28.7787042 L152.560221,28.7787042 C153.012302,28.7787042 153.548955,28.0166197 154.116874,27.2099155 C154.81601,26.2171268 155.608945,25.092 156.59204,24.8587606 C156.671487,24.8410141 156.746834,24.8866479 156.767849,24.9616901 C156.788864,25.0372394 156.745296,25.115831 156.66995,25.1391549 C156.126121,25.3059718 155.316784,26.0614648 154.95799,26.9903662 C154.801146,27.396 154.680181,27.9826479 154.967216,28.5109859 C155.182492,28.5393803 155.395206,28.476 155.613045,28.3147606 C156.398291,27.7341972 156.945709,26.0979718 157.056422,25.2709859 L157.072824,25.115831 C157.081025,25.0367324 157.142533,24.9794366 157.231719,24.9855211 C157.312191,24.9926197 157.371136,25.0620845 157.365497,25.1411831 C157.361397,25.1918873 157.356271,25.2461408 157.34807,25.3044507 L157.342945,25.3510986 C157.240945,26.3119437 157.049759,28.0997746 157.490563,28.9216901 C157.649457,29.2172958 157.832955,29.3856338 158.03593,29.4211268 C158.246593,29.4576338 158.498774,29.3536901 158.777095,29.1087887 C159.110261,28.8147042 159.66998,27.9278873 160.318372,26.9021408 C160.788392,26.1578028 161.320945,25.3145915 161.842734,24.5834366 C161.886302,24.5230986 161.969849,24.5053521 162.034432,24.540338 C162.10004,24.5768451 162.127719,24.6559437 162.09799,24.7243944 C161.899116,25.1908732 161.716131,25.8733521 161.572613,26.5649577 C162.040583,25.7141408 162.717678,24.9449577 163.287136,24.8374648 C163.503437,24.7963944 163.810462,24.8268169 164.034965,25.2060845 C164.164643,25.4241127 164.246653,25.8469859 164.340965,26.3367887 C164.432201,26.8068169 164.534714,27.3397183 164.684894,27.6393803 C165.045739,28.3578592 165.380955,28.3122254 165.492693,28.296 C165.573166,28.2853521 165.646975,28.3396056 165.658764,28.4187042 C165.670553,28.4983099 165.614683,28.572338 165.534724,28.583493 C165.099045,28.6453521 164.724874,28.3715493 164.42195,27.7686761 C164.254342,27.4330141 164.151317,26.9031549 164.052392,26.3915493 C163.970382,25.9666479 163.885809,25.5280563 163.781759,25.3531268 C163.667457,25.1609577 163.529065,25.0869296 163.34198,25.1229296 C162.634643,25.2567887 161.501367,26.9056901 161.321457,28.0642817 C161.309156,28.1423662 161.234322,28.1981408 161.156412,28.1859718 C161.076452,28.1748169 161.020583,28.1033239 161.030322,28.0242254 C161.118995,27.3133521 161.287116,26.3900282 161.498291,25.6051268 C161.176402,26.0923944 160.859126,26.5933521 160.567477,27.0557746 C159.907296,28.1012958 159.337327,29.003831 158.972382,29.3252958 C158.676121,29.5874366 158.390623,29.7192676 158.123065,29.7192676 Z M96.9876482,36 C96.9210151,36 96.8610452,35.9868169 96.8087638,35.9579155 C96.4812362,35.7809577 96.5432563,35.1948169 97.0081508,34.0575211 C97.5458291,32.7432676 99.2916181,31.6521127 101.274211,30.7997746 C101.927216,29.5985915 102.38391,28.2670986 102.610975,26.2886197 C102.531528,26.4133521 102.446955,26.5532958 102.360844,26.6962817 C101.896462,27.467493 101.37006,28.3411268 100.748834,28.3994366 C100.501779,28.4247887 100.270101,28.3152676 100.058925,28.08 C99.6504121,27.6251831 99.7411357,26.9295211 99.8287839,26.256169 C99.8436482,26.1415775 99.8585126,26.0290141 99.8703015,25.92 C99.8226332,26.0132958 99.7718894,26.1131831 99.719608,26.2171268 C99.180392,27.287493 98.4412764,28.752338 97.4976482,28.9419718 C97.1603819,29.0104225 96.8267035,28.908 96.5094271,28.6397746 C96.1706231,28.3538028 96.288,27.4857465 96.4125528,26.5664789 C96.4889246,26.0021408 96.6047638,25.1487887 96.4535578,25.0453521 C96.4433065,25.0387606 96.4007638,25.0372394 96.3131156,25.0838873 C95.2510854,25.6492394 94.7467236,26.3656901 94.0650151,28.2777465 C94.0388744,28.3497465 93.9614774,28.3877746 93.8876683,28.3700282 C93.8133467,28.3502535 93.7672161,28.2767324 93.7820804,28.2021972 C93.9179095,27.5014648 94.1193467,26.8088451 94.313608,26.1390423 C94.4776281,25.5736901 94.6462613,24.9916056 94.7738894,24.4115493 C93.3725427,25.0813521 91.9471055,27.0512113 91.4873367,28.5282254 C91.465809,28.5966761 91.3966131,28.6407887 91.3238291,28.6286197 C91.2520704,28.6174648 91.1992764,28.5550986 91.2003015,28.4830986 C91.2141407,27.6054085 91.4514573,26.2521127 91.775397,25.3186479 C91.314603,25.7800563 90.6641608,26.4280563 90.1715879,26.9072113 C89.0475377,28.0019155 86.2499698,29.8298028 84.1325729,30.2739718 C84.0531256,30.2901972 83.9752161,30.240507 83.9583015,30.1619155 C83.9418995,30.0833239 83.9921307,30.0062535 84.0715779,29.9895211 C86.0572462,29.5732394 88.8425126,27.7930141 89.9655377,26.700338 C90.8117789,25.8769014 92.1244523,24.5540282 92.1377789,24.5408451 C92.1900603,24.4876056 92.2751457,24.4825352 92.334603,24.5291831 C92.3930352,24.575831 92.4068744,24.6589859 92.3658693,24.7218592 C92.048593,25.2065915 91.7149146,26.4427606 91.5688342,27.5496338 C92.2859095,26.0918873 93.6365126,24.5012958 94.9230452,24.0322817 C94.9732764,24.0140282 95.0286332,24.023662 95.0691256,24.0581408 C95.1096181,24.0921127 95.1280704,24.1448451 95.1183317,24.1965634 C94.9850653,24.8790423 94.7872161,25.560507 94.5960302,26.2191549 C94.5719397,26.3012958 94.5478492,26.3839437 94.5242714,26.4665915 C94.9661005,25.6700282 95.4535477,25.211662 96.1736985,24.827831 C96.3515578,24.732507 96.5017387,24.7254085 96.6206533,24.8065352 C96.9051256,25.0012394 96.8374673,25.6167887 96.7036884,26.6055211 C96.610402,27.2935775 96.4827739,28.2351549 96.7001005,28.4187042 C96.949206,28.6291268 97.1916482,28.7072113 97.4392161,28.6570141 C98.242402,28.4957746 98.9733166,27.0466479 99.4566633,26.087831 C99.6350352,25.7334085 99.7893166,25.427662 99.9148945,25.2471549 C99.9497487,25.1969577 100.012281,25.1726197 100.073276,25.1888451 C100.133246,25.2045634 100.176814,25.2552676 100.182452,25.3166197 C100.209106,25.6107042 100.16605,25.9423099 100.120432,26.2931831 C100.040985,26.9021408 99.9589749,27.5308732 100.278814,27.8868169 C100.426432,28.0510986 100.570462,28.1220845 100.721156,28.1104225 C101.193739,28.0658028 101.722191,27.1886197 102.108663,26.5477183 C102.335729,26.1704789 102.53204,25.8444507 102.707849,25.6745915 C102.75193,25.632507 102.81805,25.6218592 102.87392,25.6472113 C102.929276,25.6735775 102.96208,25.7308732 102.956955,25.7917183 C102.764744,27.9370141 102.334704,29.3689014 101.701176,30.6212958 C103.349065,29.951493 105.108693,29.4424225 106.446995,29.1021972 C106.526442,29.0824225 106.605889,29.1295775 106.625879,29.2071549 C106.645869,29.2847324 106.598714,29.364338 106.520291,29.3841127 C105.10408,29.7436056 103.208111,30.2937465 101.491025,31.0183099 C101.023568,31.860507 100.461286,32.6449014 99.8144322,33.5469296 C99.2675276,34.308507 97.7339397,36 96.9876482,36 Z M190.267417,28.3720563 C190.610322,28.6772958 191.007558,28.7457465 191.452975,28.5763944 C191.693879,28.4846197 191.933759,28.3238873 192.156724,28.1190423 C191.528322,28.2458028 190.891719,28.3213521 190.267417,28.3720563 Z M101.03792,31.2155493 C99.2659899,32.0126197 97.7564925,33.0023662 97.2803216,34.1665352 C96.7129146,35.5553239 96.9394673,35.6978028 96.9497186,35.7033803 C97.2531558,35.8661408 98.7236985,34.5645634 99.5730151,33.3806197 C100.126583,32.6094085 100.617106,31.9249014 101.03792,31.2155493 Z M135.47599,25.5336338 C134.873216,25.5336338 134.315548,25.7547042 133.88192,26.1790986 C133.37397,26.675493 133.133578,27.3665915 133.282221,27.8979718 C133.385759,28.2706479 133.669719,28.5226479 134.102322,28.6276056 C134.670754,28.764507 135.114121,28.6235493 135.421146,28.2067606 C135.900905,27.5557183 135.94601,26.3362817 135.689729,25.5427606 C135.61797,25.5366761 135.546724,25.5336338 135.47599,25.5336338 Z M196.547849,25.1259718 C196.12191,25.2618592 195.741075,25.6330141 195.49197,26.1694648 C195.460704,26.2369014 195.432,26.3068732 195.405347,26.3793803 C195.826161,26.0356056 196.211608,25.6228732 196.547849,25.1259718 Z M124.189357,24.7274366 C123.76598,24.7345352 123.231377,25.1224225 122.788523,25.7547042 C122.598874,26.0259718 122.428191,26.3443944 122.306201,26.6744789 C123.286734,26.1796056 124.132975,25.5255211 124.189357,24.7274366 Z M116.484,31.7494648 C115.047799,32.5034366 113.741276,33.3811268 113.340452,34.8657465 C114.313809,34.2968451 115.464513,33.1641127 116.484,31.7494648 Z M113.148754,24.4455211 C112.602874,24.4455211 112.200513,24.8536901 111.986774,25.2973521 C111.75202,25.7836056 111.68795,26.4011831 111.878111,26.9325634 C112.574683,26.2505915 113.162593,25.4296901 113.414774,24.4769577 C113.323025,24.455662 113.233839,24.4455211 113.148754,24.4455211 Z"/>
  </g>
</svg>
